<?xml version="1.0" encoding="utf-8"?>
<!-- Generator: Adobe Illustrator 19.1.0, SVG Export Plug-In . SVG Version: 6.00 Build 0)  -->
<svg version="1.1" id="Layer_1" xmlns="http://www.w3.org/2000/svg" xmlns:xlink="http://www.w3.org/1999/xlink" x="0px" y="0px"
	 viewBox="0 0 831 132" style="enable-background:new 0 0 831 132;" xml:space="preserve">
<style type="text/css">
	.st0{fill:#FFFFFF;}
</style>
<g>
	<path class="st0" d="M177,88.8c0.8,0,1.5,0.3,2,0.9c0.6,0.6,0.9,1.2,0.9,2v7.6c0,0.8-0.3,1.5-0.9,2c-0.6,0.6-1.2,0.9-2,0.9h-46.7
		c-0.8,0-1.5-0.3-2-0.9c-0.6-0.6-0.9-1.2-0.9-2V30.4c0-0.8,0.3-1.5,0.9-2c0.6-0.6,1.2-0.9,2-0.9h45.9c0.8,0,1.5,0.3,2,0.9
		c0.6,0.6,0.9,1.2,0.9,2V38c0,0.8-0.3,1.5-0.9,2c-0.6,0.6-1.2,0.9-2,0.9h-34.4v16.9h32c0.8,0,1.5,0.3,2,0.9c0.6,0.6,0.9,1.2,0.9,2
		v7.6c0,0.8-0.3,1.5-0.9,2c-0.6,0.6-1.2,0.9-2,0.9h-32v17.7H177z"/>
	<path class="st0" d="M229.3,26.5c4.8,0,8.9,0.6,12.6,1.9c3.6,1.3,6.6,2.9,9,4.8c2.4,1.9,4.2,4,5.5,6.3c1.2,2.3,1.9,4.5,2.1,6.5
		c0.1,0.9-0.2,1.5-0.8,2.1c-0.6,0.5-1.3,0.8-2.1,0.8h-7.5c-1.2,0-2.1-0.2-2.7-0.7c-0.6-0.5-1.2-1.1-1.7-1.9
		c-1.1-1.8-2.7-3.3-4.8-4.6c-2.2-1.3-5.4-2-9.6-2c-1.8,0-3.6,0.2-5.3,0.6c-1.7,0.4-3.1,1-4.4,1.7c-1.2,0.7-2.2,1.7-2.9,2.7
		c-0.7,1.1-1.1,2.3-1.1,3.6c0,1.6,0.3,3,1,4c0.7,1,1.8,1.9,3.4,2.7c1.6,0.7,3.7,1.4,6.3,2.1c2.6,0.6,5.9,1.4,9.8,2.2
		c4.3,0.9,7.9,2,11,3.2c3.1,1.2,5.6,2.7,7.6,4.5c2,1.7,3.4,3.7,4.4,6c1,2.3,1.4,4.9,1.4,7.8c0,3.2-0.7,6.2-2.1,8.9
		c-1.4,2.7-3.4,5.1-6.1,7c-2.6,2-5.9,3.5-9.7,4.6c-3.8,1.1-8.1,1.7-12.9,1.7c-4,0-7.8-0.5-11.4-1.4c-3.6-1-6.8-2.3-9.6-4.2
		c-2.8-1.8-5.1-4-6.8-6.5c-1.7-2.6-2.7-5.4-2.9-8.5c-0.1-0.9,0.2-1.5,0.8-2.1c0.6-0.5,1.3-0.8,2.1-0.8h7.5c1.2,0,2.1,0.2,2.8,0.6
		c0.6,0.4,1.2,1.1,1.6,1.9c0.5,0.9,1.1,1.8,1.8,2.8c0.7,0.9,1.7,1.7,2.9,2.4c1.2,0.7,2.7,1.3,4.5,1.8c1.8,0.5,4.1,0.7,6.8,0.7
		c2.1,0,4.2-0.2,6.2-0.5c2-0.3,3.7-0.9,5.2-1.6c1.5-0.7,2.7-1.7,3.6-2.8c0.9-1.1,1.4-2.5,1.4-4.1c0-1.6-0.5-2.8-1.5-3.8
		c-1-1-2.5-1.8-4.5-2.6c-2-0.7-4.5-1.4-7.5-2c-3-0.6-6.4-1.5-10.3-2.4c-3.5-0.9-6.7-1.9-9.3-3c-2.7-1.2-4.9-2.6-6.6-4.3
		c-1.7-1.7-3-3.7-3.9-6c-0.9-2.3-1.3-5.1-1.3-8.3c0-3.2,0.7-6.1,2.1-8.8c1.4-2.7,3.4-5,5.9-6.9c2.5-1.9,5.4-3.4,8.9-4.5
		C221.6,27.1,225.3,26.5,229.3,26.5z"/>
	<path class="st0" d="M329.1,78.5c0.1-0.9,0.5-1.6,1.1-2.1c0.6-0.5,1.3-0.7,2-0.7h8.6c0.8,0,1.5,0.3,2.1,0.8
		c0.6,0.5,0.9,1.2,0.8,2.1c-0.2,2.9-0.9,5.8-2.2,8.7c-1.2,2.9-3.1,5.5-5.7,7.9s-5.8,4.3-9.7,5.7c-3.9,1.5-8.6,2.2-14.2,2.2
		c-4.9,0-9.2-0.7-13-2.2c-3.8-1.5-7-3.5-9.6-6.1c-2.6-2.6-4.7-5.7-6.1-9.3c-1.5-3.6-2.3-7.6-2.6-11.8c-0.1-2.7-0.2-5.7-0.2-8.9
		c0-3.3,0.1-6.2,0.2-8.9c0.3-4.3,1.2-8.2,2.6-11.8c1.5-3.6,3.5-6.7,6.1-9.3c2.6-2.6,5.8-4.6,9.6-6.1c3.8-1.5,8.1-2.2,13-2.2
		c5.5,0,10.3,0.7,14.2,2.2c3.9,1.5,7.1,3.4,9.7,5.7s4.5,5,5.7,7.9c1.2,2.9,2,5.8,2.2,8.7c0.1,0.9-0.2,1.5-0.8,2.1
		c-0.6,0.5-1.3,0.8-2.1,0.8h-8.6c-0.7,0-1.4-0.2-2-0.7c-0.6-0.5-1-1.2-1.2-2.1c-0.2-1.4-0.7-2.8-1.5-4.2c-0.8-1.3-1.8-2.6-3.2-3.6
		c-1.3-1.1-3.1-1.9-5.1-2.6c-2.1-0.7-4.5-1-7.2-1c-2.8,0-5.2,0.4-7.2,1.3c-2.1,0.9-3.8,2-5.2,3.4c-1.4,1.4-2.4,3.1-3.2,5.1
		c-0.7,2-1.2,4.1-1.3,6.3c-0.1,2.7-0.2,5.7-0.2,8.9c0,3.3,0.1,6.2,0.2,8.9c0.1,2.3,0.6,4.4,1.3,6.3c0.7,2,1.8,3.6,3.2,5.1
		c1.4,1.4,3.1,2.6,5.2,3.4c2.1,0.9,4.5,1.3,7.2,1.3c2.8,0,5.2-0.3,7.2-1c2.1-0.7,3.8-1.5,5.2-2.6c1.4-1.1,2.5-2.3,3.2-3.6
		C328.4,81.3,328.9,79.9,329.1,78.5z"/>
	<path class="st0" d="M401.1,27.6c1.1,0,2,0.3,2.6,0.9c0.6,0.6,1.1,1.5,1.5,2.7l26.1,67.3c0.1,0.2,0.1,0.5,0.1,0.7
		c0,0.8-0.3,1.5-0.9,2c-0.6,0.6-1.2,0.9-2,0.9h-7.7c-1.4,0-2.4-0.3-3-0.9c-0.6-0.6-1-1.2-1.2-1.8l-4.6-11.8h-33.6l-4.6,11.8
		c-0.2,0.6-0.6,1.2-1.2,1.8c-0.6,0.6-1.6,0.9-3,0.9H362c-0.8,0-1.5-0.3-2-0.9c-0.6-0.6-0.9-1.2-0.9-2c0-0.3,0-0.5,0.1-0.7l26.1-67.3
		c0.4-1.2,0.9-2.1,1.5-2.7c0.6-0.6,1.4-0.9,2.6-0.9H401.1z M407,74.3L395.3,44l-11.7,30.3H407z"/>
	<path class="st0" d="M483.1,27.6c8.6,0,15.3,2,20,6.1c4.8,4,7.1,10,7.1,17.8c0,7.8-2.4,13.8-7.1,17.9c-4.8,4.1-11.4,6.2-20,6.2h-17
		v23.7c0,0.8-0.3,1.5-0.9,2c-0.6,0.6-1.2,0.9-2,0.9h-8.6c-0.8,0-1.5-0.3-2-0.9c-0.6-0.6-0.9-1.2-0.9-2V30.4c0-0.8,0.3-1.5,0.9-2
		c0.6-0.6,1.2-0.9,2-0.9H483.1z M466,62.2h16.5c4,0,7.3-0.8,9.7-2.4c2.4-1.6,3.6-4.4,3.6-8.4c0-4-1.2-6.7-3.6-8.3
		c-2.4-1.5-5.6-2.3-9.7-2.3H466V62.2z"/>
	<path class="st0" d="M563,27.6c1.1,0,2,0.3,2.6,0.9c0.6,0.6,1.1,1.5,1.5,2.7l26.1,67.3c0.1,0.2,0.1,0.5,0.1,0.7
		c0,0.8-0.3,1.5-0.9,2c-0.6,0.6-1.2,0.9-2,0.9h-7.7c-1.4,0-2.4-0.3-3-0.9c-0.6-0.6-1-1.2-1.2-1.8L574,87.6h-33.6l-4.6,11.8
		c-0.2,0.6-0.6,1.2-1.2,1.8c-0.6,0.6-1.6,0.9-3,0.9H524c-0.8,0-1.5-0.3-2-0.9c-0.6-0.6-0.9-1.2-0.9-2c0-0.3,0-0.5,0.1-0.7l26.1-67.3
		c0.4-1.2,0.9-2.1,1.5-2.7c0.6-0.6,1.4-0.9,2.6-0.9H563z M568.9,74.3L557.2,44l-11.7,30.3H568.9z"/>
	<path class="st0" d="M616.5,102.1c-0.8,0-1.5-0.3-2-0.9c-0.6-0.6-0.9-1.2-0.9-2V30.4c0-0.8,0.3-1.5,0.9-2c0.6-0.6,1.2-0.9,2-0.9
		h31.4c4.5,0,8.3,0.7,11.4,2.1c3.1,1.4,5.5,3.1,7.3,5.2c1.8,2.1,3.2,4.4,4,6.8c0.8,2.4,1.2,4.7,1.2,6.9c0,2.1-0.3,4-0.9,5.7
		c-0.6,1.7-1.3,3.1-2.1,4.3c-0.8,1.2-1.6,2.1-2.4,2.9c-0.8,0.8-1.5,1.3-2,1.6c2.2,1.5,4.2,3.6,6.1,6.3c1.8,2.7,2.8,6.2,2.8,10.4
		c0,2.7-0.5,5.4-1.5,8c-1,2.7-2.4,5.1-4.4,7.2c-1.9,2.1-4.3,3.9-7.2,5.2c-2.9,1.3-6.2,2-10,2H616.5z M657.5,49.1
		c0-2.7-0.9-4.7-2.6-6.1c-1.7-1.4-4.4-2.1-8.1-2.1H628v16.4h18.8c3.7,0,6.4-0.7,8.1-2.1C656.6,53.8,657.5,51.8,657.5,49.1z
		 M628,88.8h19.7c3.9,0,6.8-0.8,8.6-2.5c1.8-1.7,2.7-3.8,2.7-6.5c0-2.7-0.9-4.9-2.8-6.6c-1.9-1.7-4.7-2.6-8.5-2.6H628V88.8z"/>
	<path class="st0" d="M746.8,88.8c0.8,0,1.5,0.3,2,0.9c0.6,0.6,0.9,1.2,0.9,2v7.6c0,0.8-0.3,1.5-0.9,2c-0.6,0.6-1.2,0.9-2,0.9h-46.6
		c-0.8,0-1.5-0.3-2-0.9c-0.6-0.6-0.9-1.2-0.9-2V30.4c0-0.8,0.3-1.5,0.9-2c0.6-0.6,1.2-0.9,2-0.9h8.6c0.8,0,1.5,0.3,2,0.9
		c0.6,0.6,0.9,1.2,0.9,2v58.3H746.8z"/>
	<path class="st0" d="M820.1,88.8c0.8,0,1.5,0.3,2,0.9c0.6,0.6,0.9,1.2,0.9,2v7.6c0,0.8-0.3,1.5-0.9,2c-0.6,0.6-1.2,0.9-2,0.9h-46.7
		c-0.8,0-1.5-0.3-2-0.9c-0.6-0.6-0.9-1.2-0.9-2V30.4c0-0.8,0.3-1.5,0.9-2c0.6-0.6,1.2-0.9,2-0.9h45.9c0.8,0,1.5,0.3,2,0.9
		c0.6,0.6,0.9,1.2,0.9,2V38c0,0.8-0.3,1.5-0.9,2c-0.6,0.6-1.2,0.9-2,0.9h-34.4v16.9h32c0.8,0,1.5,0.3,2,0.9c0.6,0.6,0.9,1.2,0.9,2
		v7.6c0,0.8-0.3,1.5-0.9,2c-0.6,0.6-1.2,0.9-2,0.9h-32v17.7H820.1z"/>
</g>
<g>
	<path class="st0" d="M125.7,120.3c-1-1-2.7-2.6-3.7-3.6l-7.2-7.3c-1.1-1-1.7-3-1.7-4.5V93.4c0-1.5-1.6-2.4-3.1-2.4H73.6
		c-1.5,0-3.7-0.6-4.9-1.2c-1.2-0.6-2.4-4.6-2.6-6.1l-1.6-14.9c-0.2-1.5-0.8-1.6-1.4-0.3L48.4,99.3c-0.6,1.3-1.9,3.1-2.7,4.1
		c-0.9,1-5.3,1.7-6.8,1.7H36c-1.5,0-2.2-1-1.5-2.3l18.7-38.7c0.6-1.3,0.7-3.5,0.2-4.9l-4.5-11.4c-0.5-1.4-1.7-1.5-2.7-0.4l-2.9,3.6
		c-0.9,1.1-2.6,2.9-3.7,3.8l-2.4,0.9c-1.4,0.4-3.8,0.5-5.3,0.5h-4.4C26,56,25,57.7,25,59.1v45.6c0,1.5,0.7,3.5,1.8,4.6l0.5,0.6
		c1.1,1,2.7,2.7,3.8,3.7l7,6.7c1.1,1,3.1,1.7,4.6,1.7h3.6c1.5,0,1.8-0.7,0.8-1.7l-10.6-10.5c-1-1-0.7-1.7,0.8-1.7h3.4
		c1.5,0,3.9,0.2,5.3,0.5l3.3,1.3c1.2,0.8,3.1,2.3,4.1,3.4l7.2,7.1c1,1,3.1,1.7,4.6,1.7h59.7C126.3,122,126.7,121.3,125.7,120.3z"/>
</g>
<g>
	<path class="st0" d="M42.7,36.7c0.9-1.1,2.7-2.8,3.9-3.6l3.7-1.6c1.4-0.3,3.8-0.5,5.3-0.5h16.2c1.5,0,3.9,0.2,5.3,0.6l3.4,2
		c1.1,1,2.5,2.9,3.2,4.2l3.9,7.2c0.7,1.3,1.5,2.8,1.8,3.3c0,0,0,0,0,0.8c0,2.1-1.8,4-4.1,4c-1.7,0-1.7,0-1.7,0
		c-1.1-0.8-2.5-2.6-3.2-3.9l-3.2-5.8c-0.7-1.3-2.5-2.3-4-2.3h-4c-1.5,0-2.2,1.1-1.7,2.5l5.2,13c0.5,1.4,1.1,3.7,1.2,5.2l1.6,17.6
		c0.1,1.5,1.5,2.7,2.9,2.7h10.8c1.5,0,2.7-1.2,2.7-2.7V10.7C92,9.2,90.8,8,89.3,8H9.7C8.2,8,7,9.2,7,10.7v33.6C7,45.8,8.2,47,9.7,47
		h21.9c1.5,0,3.4-0.9,4.4-2.1L42.7,36.7z M47.4,12.1c4.8,0,8.8,3.9,8.8,8.8s-3.9,8.8-8.8,8.8s-8.8-3.9-8.8-8.8S42.5,12.1,47.4,12.1z
		"/>
</g>
</svg>
